<mxfile host="app.diagrams.net" modified="2022-09-11T07:40:09.208Z" agent="5.0 (Macintosh)" etag="79qSzjuuZzy-rQCVXW4q" version="20.3.0" type="github">
  <diagram id="aCHc-O5dG-wJ0xoCItkz" name="Page-1">
    <mxGraphModel dx="946" dy="530" grid="1" gridSize="10" guides="1" tooltips="1" connect="1" arrows="1" fold="1" page="1" pageScale="1" pageWidth="850" pageHeight="1100" math="0" shadow="0">
      <root>
        <mxCell id="0" />
        <mxCell id="1" parent="0" />
        <mxCell id="NI4SbZZZ6r_hj7vKg_z0-3" value="(For Data Processing)" style="shape=image;imageAspect=0;aspect=fixed;verticalLabelPosition=bottom;verticalAlign=top;image=data:image/png,iVBORw0KGgoAAAANSUhEUgAAAY8AAAB+CAMAAADr/W3dAAABqlBMVEX///9sz/b47yIHGSMjHyAAAAAAABH/+CJx2P+moCEAABT29/j99CIAAAMADhr/9yL05wsACBP57hN9e3wAACBCgZteZ21xbm+zqyE3aoD46wyblSEAEBpMka748ERIVVwSKDOimyFUn75qye5oZWf47y0rTV0AAAtfrs8eGiD9+s3u7/Dh4+QiMDgZN0UzLyAAAB7U2Nr58EkZFSDVzSyPiCERDCAAACYAABj68VcAHikZFBVRTU7Cxsj//yLs5CKMiove1iIoJCkuPERFQCCDfSEADyLCx8lZVCApJSCboaVkvN8xW206NiCxsLDAuSFnYiF1byE8OTpQSyCjp5GBiY768nDEx6l9gDEdLCpcZDJTXFdueH3MxCJHTy378380PipuczNAdo2mpKVCPz9hXCFiaFB9gEZ9hXbDxIXk433Kx03h473//7SjpUj/+Zfg3Epia2JRWjfX2bySlD3897ng2lm6uE9kbUeKjDM2Rjvt5FLSzl0AFi/HwT9ucyxyfHCcoY24tFPDxZwuQTucomOFiU79+cezs2dIVkP/+5Hf35KnqnguKSCnvCZYAAAgAElEQVR4nO19jUPbRrYvIEvgb2wEcbCIBcQIY5uYWGAHcIxwsAkQOyF1iilQIMlNbpvSlLI03iSk25fbbffd/M9vZjQjzcgy2C8JZLecdrshGs2M5jfn43fmSHR0tC3uKbe7lIsbPyZKK9WBgerKVPy0uy7lM0m8OrUyUHLjn3LVgaTLq7hcipItbJUvdGZ/TVmZ2trS0XDnqrM8r2QK//Xs942NvZ2iwCfL7jNuv5RPK+54tar/oTwAlCJVeP7f3z26BeX1989qWWFg6oIn+FeTEoLDnUvySnH++YsfdDCg3Lx282DXpaxcqsh5ShW6bfeWTxAiX7+Y+PGWKTeBvNxMubYuATk/SSTAf6ZkRfjp54mJiR9YNG7evHbtQFYKiYue5V9HEmDzTxWU4lcTUP7FwnENyvc1IXLpRM5REkkl+TWCY+JbWjd0OK5dOz50ZS8j33OT+IDCYTgwHiwcEJAUt3LR0/zLyBZvwDHx7U3TcWCJRqPXXm5w/MClEzkHcZeqruzziRcvfv75BcDjx5s2cESjL18evc0mSxc92f94iW/5eEUUk38+O/j++PWtR3/75y0GDAxHXnt5crAp8gOXGa3PKlMRryvyxy9vABS637j147fXGpQDSFeXx5N31pSIYbPcuZXLmOsTS0lWkl+ZES5y5I8MNKLwH4wGlGBwe1MwmMgA7+UjuQud/n+alJKK/LXJx1+/pjjHtaj28lqUhSOYV3eULf3eFaW4s+vyXXqUTyclwZVEcHz/y8HGq8NXB8evTVP18uioAY5gUDupuVDcm1NSTr+6mb0k7p9E3IlcdUD2cV/D9MhGMSUeHrw5vmWiET1J/hJthCPYq9bFYhwSyFR9MFTZrmUvLdbHSrxUjcwqvODzFb/+G4RD/Hvq2TGtGwCO2V9s0AgG/RqwWNWOspw9DGqb+fxGNnLRj/PvLe7yVoTzCoKL47jsVxOPbt06zvx+uPuGgeNadGPzmh0c+fDexkYxGUmlNvPapjPYe1LkLw3W/79MrRR4xZt98tPzr55z2X9A8nfr2as3b4HnuEZxjmh088QODaecEsVaLStuhnvVw3eDg71qTamWcqUc/NeQEpDcOcHknrKXf4cDgng1qQjc++cwN/IiKTyfgNbquPbmzZ/HxzcZOKJHGiEdHhOP3sr7eaBW3G4or4XfL/UCPLTNFGcrwjmlH8ty0k4i/wZaW5Z5Rf71Z5SlelHgf5qYgHzj4NXxm6NjFo1o9GVehyO/7TzSEBiD4B/txUQky2W2T/b+fKf6B4FoByJBQKKEk2bPiStWFTy6zxjcJ3HC1vmM/hGS2PIJ3PMXOGtYUL55gazVrcM3x9//8tpKxzVkqzzhXfmtM6/jMTgYzP/vr+9rXEYbzOfBj729vYP5kxrBQ540ROakc4qD3QM+PPwkPbzyxeeiAfVTfvqZJHF/4gsvkLW6+f0r4MmPb+lo/EL4eDSP4KhnilxRdvb6IRoQAa23N1/PbKMfARrgP9s7RX09+KGeTiw9Q7xv4HwMeLyg4yFNdhoyuibxX1omx422Z7xMakPKSaH4D4LGxHNX8meUWb958+C3Y8D9kLmKvnwWNQTA4Q8Xi+BpU5tqZRsoB1x958a7+kYmFDTgAG6d4LFq4tGvnNcGLbn00QNrxuidq7KkfGHuPL4C87C5CI/NRpkXCsYJx8RXfBH88DeYN7x5BCKra68x6dik0Ah6Kru+wjc+TpTfhaB5Au5j9/6GLC6L4aBurMD/etXNIt6g5oJ0rgXOa4MS96H0m7thRJHk8xm9RZlKbCVgwUi2JujbtMy5CsRzTPzz/3DoqPwRKh75DeqGrh5R507eJB1Bde/k/c8TP6U2twd1c9V7GOp6t6Pma9PBXkPUd6nGDTopuc7pUSPEfYwbo/fsK4GBcxq+JSlPba3AM1j+1e/ZCNSTKV74hsDxt3892hWg5foRpdVfHr82PLnnYFcz0AgGtS71fya+fh/uxc4jGKp3b7/Vgr074WAvUhCER10PsAL71AaVpOQ5PWtSwtq5auKxFjivYLs1qeagMy0Ivz+q/a6UYe2IK4nhgKVuvwvfQC3Rk1WvX5phleegphIOqPM/9Y8/t4MYjsFBZ767Ph0c7N2pDJp4aEc6HtIIvUFd5xRvJjjiPkxj2Sn7kl+UOy9VAQhV/tWjN+Kr2WpHx4CAT8dR4eFxTYZhFjx1AoZKVw/dSvmP3p5EGUKuvVNNOLSToH+zAoDY1Qw0AB5hHQ92g7rOKctYxu5cMbWzc1zxRb6oU0w3UI+p2b+/efRHNgtzf7yAKqv+qVeObAJeDqDRCSBSD+LE/eEMwiNoiEppx2C+dzC4B6DIv8+bcPRiQihRG7RnMnBeWfiqyybY9p5XsN2ixIH3WOH/ePTdH8qWqxyPKN8YygHUQ+Sg7cKE4yXNAf1O8SBPwxHM95pwII8ehnpySMHRq/4iWjfo6rktSJy4c8XUzs6rgS+MDcZLMA588+13/+MtlUtbgkyXgT5D6vGjDsfrmyYawH9UxL08DQd0E4zkNfBX23UGD10/WDYobLk/hZiP5I4n7GQqyTWywTGJL7XZfccnmW7TySegfvz27Xev5ETHFu/61YTj5nGtCNTjbzhddTNKSZdHy+yoFB6sauiUHLAOQA5NOPKq7s/58R5qg0qFgU8gW9UyMntueF7jshXizq/SwTbna63/all3+1Pl6qeYrnX2KznKiyUKu9/97tpKRHwSAoBUKxxkITqPrOkqPazK12rbXbZo0KhU8r00HhsQD0lmNijH+T6BBARfciDhLhc4F2EZTSRgamfnSMuju1zywJQ7F5F9rk8x3YbeuULV1JIc/wdgH7LrT+En4MofkSLQZy7g23+INqChx1Wb3En0FDx0Sk7D0aupe8WGdAXvtRUlQNZP4VsTRXLJEQKGdMpdTLCNmwfsZ2FOBwDnSkYUgnVAOaO9Mf1Akwe0tpZ4Ku2fffXmT+7wj1epr3FNLqoceeYCXPBRVK8fucai0eWpvw3lT4Ojl/YcuvvQ84n0Bl3tbyL7a7L+SFL/+EgrMnRVljhjuSb3h5q2HKWCO8QQJWlyrdk8yHTGOKhKBD15bf+M9sb0z+rZbO0qGBoSyb5589vx8c430F0Ybw/8IhZe6N4jeu0XBo4gwGM4E9aawzHYgAYwV5VdiIdkpivAkjSTzvE19ETyatMmFhkfw5sywO2fdhM1Oloxfmxo9MzOO0cmyZYPyP2rzedNZPUqwpofaW3uV3nQtkrwKBUPf3vz2yugD/98ZJZIv94Rnv+gZ9WPVFo5gsBx+EOZujpoBaOXNlYNeITf6ivc2ZoMKXB/jZ7dEAtyRmC9xlodYBTaCXmoxcZXFbzjW5tRzxCaTItz6enn6HOgFV7IZlPC18CZU28PnIjibwiF+oHfekTuqWQ21F796KnRddjA0atpKN0ujbW6woC7g2ioxcZQVmUER8sIjniBFRrvObshklGU/1L6W+29Zz/ABNdnyFWBE0wuNAXCOGEWnnPQ9erPUihL5dyMWuEIBiEe+VZdh26uOCsbPEPA+rb++J06gHS28CzZD0hyy3CADR9oa/Zw+oH9lluPAvfH1EOV+IieOTTLFY4PU4fRqCpXugw0jBi3GR42UODoqp7CFrXlKY5JgfGzmxnSAyyc1PoNkA0Otb68neNyW+azs2csEBg5uxlpPSlJBRqPFf7XiR+YevVrL09q4kH0/TuPVTkQHnVVa8TDXjmgeuDTc28bT7SmyGc3oh5pRGGSt2fIqhwYa6f71ck2rFunHk63vjuAcrN4VPnn6KCDqh7RXh6JOxsZtYsoB4VHKBNWNRaLoBaq5JsoiKru4WR7O3jwa208P8CDl1rfkJ3jUhvbtxPiobQ3nX2+5dhFxyPC4vGPiX+ZlW56Kc/Lw5RY77LaKih1MaSqLBzhWrgJHHlNxbl2aaz1Rxod4/vPCEOtCzBpQfuUG3r6vW0sVye0V97WbS0cAGynNlqPSa6qFY9v2coqpCBFzQaNYHBHrljwyO9u55v4D1Vz1vSzc+rwGiy48Qcg8P/YxwUbcv90FsiuZ88Yq089nasNd9Ctvexy9YD5oGnA6aA/sdMZkaRVS3s0bdR4FD8CJaOTPPOwo2xD686RJSFntVePGDQgIAfiRrcNHP7tzK6qqkxSt1L3V/6+bePS86rqlHFpCX14PcTJFhljNiB0oIFTRWK5xiTPhD9DsvV2ngqGRzlmuTpX16yzkdfo3nuGvKz29U9a208y9m+c4yn30fiwk4xzWeWlJHMSBP35rYbc4aaoeqxw+Lu7/RvinobxIKBsa0EtM/tuWIPZd8ZWqRtYO9jD66uKRDJqEua+zA4cMrJATUWht/iqTAdvPf0BWIDok4zeQXMquTuu0InmnpFJxSyZxJPlaX9vMT+ja17JekOA9t8gPqafBtNJU6SAzLTmLUeVZf4bHQ86c6jt7uatcPRW6ps18e2JCv05ibFQXDWoFYspkTusV7Q8TCXm83lNU7cPdkSiHTQbBBrKFSK6FPAjKVTA3rN2Nh4cRz3ySMDyk5Qs6EIaU3iB7c5TrcH2lAQ9MS8YuXmOdhijskJFx6NjChcgqXzBAISmr/1e+qgFBGc+AXVu9E7vjs6rAUshQYlPTtyKsolczza3E2Xg6M47DzNiZndnT4V4BLU956CuDlBRKhk4ThFc36uHQydAnOGNHVHwFWwmvKpIyam4LmUvvs4UGxj7ujU89pn9vBbwRabwWZRMhqd2w76Xo1pfVXyFlVwZSW6FtKe93ThPcZuecZ5zbZWJkO1EH0V3Mvq0ynHC1gqSapLMZozGVxIYd96R4IsvHkUZOLo8lWIx5KGUI++URW6nXlGBEVJV6L7VzZ1KHqtIcEMPompAf1KiWCxyxVRKyBa2EsbhNbVBR6hKUQMPSj9WeTxvqbkXUZKUQxjj6btlyUteWCyTvPokvQBeJvHPec3CH/Nsl9YnXqbQvBqgD5rJ4zHbTQ6YqTFAjTgXMUdbAnlY5miMt7xfWRS+/rbhmKMuvq10E7/hD+2Kmc2QDoaq04+8Ws/shjVdR/QC3dSeelhMugTF61WyyWouYZYyeyn30a+YO2JFaTAQcAvCNeS9k2tXm8kalU+BBsX8aRz0SBZsy7ZSlDY/4xJHvSxEznY5ygHAYJoaa1JyUSfvBL8ANZ1xL+UfwMP6DLZXIK1HmAlYCldLvPCPf1nQQHXSmWGAhMfvD1beZ4p7FYwFEN2bq+r2RiZTB/5jMK+77VT4pBiBB9lAsO4VSC0aYzGNSlEDL9qg9EOdCUwOnZrdNrvrHA+wlYdmOoiYk0A/7T7o5Rpi6kbLQqM+AfNDBwPgqhmdxskAHH3YRZMhml0kjBPMJtMlm8j1649dLBoAj65wRrwPqLjmvI90A4GRpwJdoCwh4DLeAUB0PIrcSd3yUoVdKTPYYsaOSBgPRK0vdOf8/iq95KcJMCh08AbsMZmDOynZLABvKQPbopfCRp8m6eANcBHZLKQz9ClJd0l7s1FZ8hH8chhtpg5t0sIGOxKgz+T/7bLAgU46doADz2REcdOJwWDSVgCP4WKhkN3UgH7sAkR2nequwBZVVYnFpP2jZG7JHF4Amr2vwodsI9/Xw2RXaINSItaH3rBrXjo3CLwtRcZIIEG785EAzeb7mWRT2deIH0uGRgImfisG2hReAU5hC1er2d3D1P96WDSQJ/fnpzd3dnc2hxEalroemJlS62KhVHDtaMG9w3r9qKLtKZYiZWJf6UpRYFGNViuCzQJInLfFsyKMAM3vgDuXiX+0W4BOmXb+0FWZ292dJQDSDoDmkp1rEm0BqjaljywZAlzEOG0irb30dHmO/VxClRePvk99082gYb6dCd0FBMNa2dML/Ye6meJziYhQq/SG3m04K4cu6yt58hmlzAONpefgEejSnLNlnC4kAmTMoFeGc2IrRRkuwtMvaU3xdvpER6+joDNTn9zEQdPp+yGFo/DbDxibLx7B2kdPF8SazJpVfeKm9nI3c7PLDo4gYRg2R4F5Va3UimC0RIHn9kLboXe7fNICh10pc89kwLTAdqXn+wrXVroP4EdzkYBgLABxTmylqMKEDnT0SoI9Rp8mKX2CoZ/PfMY48c8KtZ0YMgTYhVEIOWVUXdB4KYzHBdqxEY0Cu1O3h0PHxCr4nEk9Et/VuFJHvFoUsmJWkVesJcrEvtIaOmpuYEB98IZk8OJbP1xDj0Snl2CwYMQzs2S56PSFl+YiaxJdNzpgYz1X+QBjvKSk+ZB2+gTIEM1FwGYw3AchQzLDBukJQO2AycOTGs6O0GgMslD09lJwIPehbRZPdpDzzFUjkS2bLyvZlTKP8OabMGX8QDSdGg20dTaI4lFqAWSOJ9awZLBBujXDBhkyliDmR2EKWxk2qNjqEz39Sa/JRSAbPIMMcTxl/3hxD7pxWEB45LcqR57Fw3DoRu62UttUD4qF5mXRBt2lE0b7FBskU/QyeDFngz2dqzZCafwqR58uAS5SjFt6Z+mwl4mdON6cvpFdodngVZ5NbtBs0CBPNB1lyNBVOzZIPyyYgKlvAI8jD3Tk2klmNmpN524zVT15jUajF0a7B+IGwMTK9ilJyERDqQVek4wdYTpcmr3zNBnrHF+bbBSZ3oK8hQ43skGajweY2EnhiuZ0jeCbKWyl2SAI3ig2aJAnJnpk2CBFb+IE7eZ0tENObSAU8to7MeyxeI5h+pS8txJi8EDRVe1EVXdOKdyfIuyD5QdZ6wOxeNELAK2bZCMsHabZYMCkw8TbMhvWslw+KkA3k1EMG6RjpwDtPnKkf5meAEOGKDZYNqgWzd4DDBuMuHZ0v6GFuJrmYR35kYkHCHuPhokTIeZqu3YIfYjC0ktaDPtKb1CquqVkQ6dGGTqMS90sIslMPEond2GxxgpOp9ot16SXCR1A6ziREnH/9ATGmcKV/gAnl0j7xBbRPzqgYsgQuJuEnHHDFtDBGycxb4mVOHHjNlIQEGLtdTNwdNWd8JVleJIB04g76CejiERTtT3xCPx345TXAO3ZoOk+CHun+cGIRNPhcRs0GvCj7u5ZUzhJ8SpQBKM1vQD0coHtyUlmwTVpT/M/lg0C+8aZ7fEpjUSH2ywbBPhxGGWBrAV9VgXCZ5mOgtwDQlGFjhysuJyp+Gk8eus79QNnpVI5OXEebexxoSBdgAi9+e62eioethZzjGKDBZvsNrsAq9ThnSk0AuMyTx+Wjgca7BvD3pnKKxi+Nugey36Y6BWm0hs3B53bBduJfQ3L+GQLaS3R4w95Ld8MmeKyu5U8PFlVndxO3kRjMJifFlOpFExgZUQgmRANB7hhMxOGaZR6czyIOWIqRTkqH0dOMmUmG0cvQM/42piNUAgMKfLoGTcw/tPLcM3+JIfWiiyYxE3u08UVo3TsC90ZqnfnOANGSV5jjv4tbDAAW+J/4Rd05DWmkGs/YH1rb0Up1vTc7fbOW9VjoDEY1MKpQiEpz8pwl4s79TDzxpMaykD1OBUPwgbp48lVOzZIezi2NqOzk1RmMEJdvtpQW3Nqa2+Sbbw6bhE2NbCqBJjl7hw9vT17NNZpbWxpDWLNBu9bFooZeLahHYm79HsdwKPoB2elgk+shYNBjYFjezejJ32PXE2/c2B7Nug13Qc5G2TosFdppxQQGBRvG2wekLW2UmMgvGsvd8OSoTNby1zjN0NyspDa3Tuo18S9LgoPTdtAKzfl82U2NSbUzcPMbmZTP58aTjV7b9lgFzyTnPIa8TFx5xb23tYCjMrtVF6zZ4MtyNU2C1fHve1Uig4FOF/jusW3fEJWFDlx2kQjqAH7hVZuSyiG/Ex1Lsz3OjM1fF7YnIAY6SOOzu5IBn802Tv1CFeV9vAYV9ooJQfevj08xtt5cQDKmGItlDxFQLht/020qa0kWBrR6SdowORtuOiDurTlqrG1oND3V3aRM0dyKDQhIEYxAX3WJEsCcWBGeoLFK9DOioHwuY03RWDrNt4bgMUL3Gw7he0jUht13ZCcN/1oh3tFeath7QjCZEhF1jM1gNMxpYcoFNst1jWCx67QRD9szwYDJhsk6Qm6+mV1UmrrTZzOMUlqvRi3B7Zuve+eIZ6tPTir/fik5G15N/WMy5K3KZeOR7I73YYrB/IuqycKE17yKStADZHrUI9kcefkZHsbwXFU9DX5UI7NWRPYEiZ6K3Z4yZCttL6FYbWZ0rKLHuXaeQ2lZwTNrvXtsQrCW6VV99EDtp4v2TQXW+IyIb+uHb3biI2Qj0pHXLvaINEMKHuiy1UEhEQsFmdn34pKxL5Tt/3ZIGekHwkbpBN8sFJU4louZUD4McU2py4BLAVq9c2oHkDNde/W39pswH4PMLb39NYjMlMZYZUVAX/xEBXygPgpVcA0IceJ9SCOqqDrOCx6t6pJDr3NnnX5uGa/EMcoJhijynaozxy5ST6DfpMWVYpKk/1nv8eqy4iO+dXWXsaFL4qC3s969RW+rdA5PmYw8P5R9ir1NoP+R/g3q/C9a6v7b9J/D2rtU075wNGKIm54/HZ4dGwpsyGdwsPwdjfrgxYngb9tXGr6kR5STCBNUmVskskGSyRfJFPX8S283LwSjhGcbgwExlpvLSlj/UOnS//+mNfMjCjy/pk3AGZntW6rTVvvrwUUSYmc9msfSrO+zLsKLFvQ7dJG1qTRcuqQOO86l5Vb/K5an1E+TJV5co2Viex1olRnvG9gvHdg3NBO6xYaSz4XMAFtdI4fhTqZAlSqefcu7ozfIlROCimxtjccqsASRPUwayZWyj5xQ4fDyTVUkDSTeESx+2KHeTpZ5T/DB0E+kQQUX6SaKEcUQSLprebio95rYI/Gmt3o8ya3zvw6XaIqc65sitvd3KhvbHJ0YmVLKR4h3/G+KLf6EbH4QMRWyK5wb9lf/yJkQP+t7vHcQDKZlO2/Np7E7zSgG4giMZWiAa7JjQMr8Va+/eWeWtmSXV5XNpvK8gVKndwRQdwMnRzVisoX9RHI8xC3Ox63/RwWLVTsYsioDNneGd/UOnP0BMCkUEgWqoweJCJKSq4VXc2o+F9dVhrrFOEHVD/VJxobIXSvJHnv7Nbl77mxly2bTPZQ4LN+sD9eyiW+qC9AfkHiNr64zFSKev9yxv0LkfisjfsYk5Rz+IBq7krflVZl4SO/OPy4+Vh9rVtOdsaPP25KTYawKbNc5aTZc7Anffzc3Jz9dyMbRJn7KIV1z3vn5oQmXfMtL+wVMGMF3zbX+m3tiPFeIPXe4JDX+t7T5xD3/JwjdsMZakkepNc/ZqzEE4cj/bBi2/WSY7HV2GXd4Yjdwbfd/Ty/UsHug/1XlfMIRuOLYI0edHf7W5Buz42P+r1qOYfDITpv23btXz6lTJXtZc7hmFlCvdzWZhwfMZ+mYv6+F4YN+s4hGs3x4OmGPV2tiEdzxD7Ggi6AlUyr9mPl76RbhPox6EUMoWJxj9N1/SPm01TIW4SBNaq2ZdJ3Ht9D7wNPF9vW18jfjQUvmYf8jL974g993OMjQ4Nfg+hmx/Jsz823CDVEVczrty0pn8V9kLomTobJFSRJmfM1ORf6lILcxz38dMPTWCoeXR3Iz9P6Inqmhcd2+QK9pzO+nw2sAA9NI1YHo2tNH2tYWGhtxnE44zv6hPMPFz+L+yAH0+xvjxPO4fe9TIE9m36qK792N6sosIJRDKHH7R4WXYpLBH9xV1/E6HJ6/rqN9C0s5BJ2F/RLZCxkGp2oa39FzCoC7DqNvwF1f+ZxeaGvURYWHsc76CtXHNB96DNWY4t0yzJz34Jtf/hak6F0g+SOcLM24jqHD/YjFxtG9shTST9ZeAxCoNgNfc9233ddeQzt2cwDrC93Y7axsSAosfm5Zpfm+vBYyH3oprF7yXX98QIYO30f68uH2DroQGgURZm/Tl9xzczMkA3jFB0g9MUXvA4UupPb5uYctv3BK3NNh9IBidvLObAPZIz1NfKElYUONwxJl/Ea3QPRVNkL8NAf3x8SAVh3nTYy/SEGFvdG2OZS2IFPSPTIGrtvGE1NQX0J62Nvg67BT/dtOniYhlvi4TD9d7r9vH1/Bmp3SJ/CHMANxiZ6i2U4oZk7ww3dhe6n0VBPGy85l5W+M9brM4u+RtjFPk2Xkb7MLOn6sh1bd3fAZ7yrx0TdD9Djd3tsZAld6rK5cpv4XGgaZ+7rXWs31uMdCwDqtO6qusMQDwBOo3RX0nBKbNcY1RsxuFnQhG6HsvPzYLt8QD/5oxCP9P18Y3faPYTUtN1Q2475i/0dOwkvZTLurif0YLKCg0kB7BYI2EPszu/AlQmT1xIZgZsuNW0Xynbfx68jQN4gDmPTmL0e77gCuv6ghxIeeH/sjl3PnhCAeiZv07UHsA9js9x+kL0OAX+A3n7xqHehId5umKun6yG8yQhh2IsV4frFZlgp9uGvZOdR+BuL4bk+AAuZWITPiP093FiObUY/8JOgTYdx7GIvdTnmdKP82GQfnumZxSdPIBNd1n/Ow/tnljz0/aQDoHrphyQCp694nCmHsVn8N5Q+uO91YuKHIMZiXcxduiJn1xfNMI8dCsSPF/w7dqDJwOyjexpEnHEYbj3UZ5e/A4LJMtzUzm5jozo+TA9TEsbrW4GXCCkI6ZewV1JTOMeC4lSsaQ/TjrkZ6JinsWlEJj2E7wijDkL6NKKg7cw0DijwsFEDKQKiR0utL8xR2gLt5/Jt/UGc5oSXYusrc8Ye9GjMUF3L6Qs+D7pusg/PMvC7Jd5hPLyaBcYUhleiRjb1HFw1WkSCJXz8e90YxxS6pHsG/7DrChoqDgMDfVt68nDLww93aHhzD1OWp/uBiO4nQV3a9DLDIuxavIc3zMOYwdT9oez1eQgB7hDGFykSN4LY2hC+TId503goPK30+sX+wm6GfdyIxfWQlDw8WEhEvvDjR5cXF67Pm7Josu3byLOYYcC6w/VnmO4AAAYZSURBVDT5D/AhTplhHzCK8CNDAf1o/k4Mdoa3/cP0E1NbukMiFYBn4agm+3CYm2Upi8wV0RYYHhiLnr2+YMhjN9yDN/BQT9NoqmRa0GJfpCBrRHaRMI+iKfPheeA+HBT7cCzOry+aEovFqP0O2hEcU/MwaL5DtCWm7zkqeeVfShmwa9uqGoJwgnH0iah306DvNBXUkQA8eiMGe5kx2QeYLWbqy4vX5yhtEc3N0n2H+RpuAnr9pyTMg0PFiMVeAgH/hcrjBvYxZ2Ef1KYGzwibp2+YEhv2Y4uAWKSuK09dV9YpbZnDIeQValsupwnz8ITEmaxLcTgoN3UXdv1hGbcFWJG+1PQ8tWEQ+yAgancR+zC0Zcbw2Z58ao4OYhkG/AENRXJqy/wX4T6I6uYa2ccVC/twpKfzDR9mBJ4F7ven+KdYDHF64j5wXirBsI8YCbPhn+evoyxAWsNhDt23R3VQAXgWIp0mSOnsA2+W7HUElR9rSxrG1n47K7RCJ5mZobQbLR/BfB6Jz9HsY7GRfbjXHRb2saTnY3EmmIT3FPsA8dQTfRPrxuKpYsM+oHkiNHTZm8OxF17mbkpuRx+kKVc0s3DXdB8s+3BdeWKyDw2xD2wcp1krRIV5zFDdXUvKlYtlH2UL+0CujmYfUzT7gDYFW1pPBSUbhnUdYNiHfzh7HQb494m2YPbRx7CPdWPXd8PlipuuuCtP5zHCcBOYAfg6THkZZx/QJhnsI93APhxYBZ4yVedMkpnJ6zx0fZ5kcetCnX0A9qGrA8M+chb2EbuDff1DEck0dh80+3gwg8yVoS2YfVyn2Uesbx0qVDfZCIiWGvEUJam0g+prZp4Kv63s40oT9qHdW2fcB70H6aHE9PxF/35oK/uYohcSso8Fq4vUjZsn74hR2qKzDzOeeuKgtEXQ2Yd7jmYf61PAamDSnY8txvusbooRIwBPraMTLXL2QbMP/RJhH3ehZyHGcWadrmOZp9lHih5msW/hYsurUHkBYR/3APt47D2NfaSpuETfUfdIQEmzDxF+z1oULezDmphBuSsd6eV0mXIf0XvMnnVQ6f9leF4iirbsA1+yYR/gEpX/n4Mm4QMhOuxQ3sWLZYM5hn1cb2QfU/TZB1QJEhtvh5GEyH432YdH1S/hE3l79gE8BnRdOvSe8IyeCMT6NRw2ZRhlaXEA3uXU/1JtZB9dIfoSwz48Ibq/JWT/ntoN9TTtuOBolzn7AGFpgnIfURv2AXw9CXDp8MqP2YeHvqQ/scE+UKRAtuVTYBoTRmIGRFuLJvtgYp7bmp5mJMf39IE7zT4sl5BpxcaRKgqA12G0RvYgO1T+3uc5im9d8NE5XiPAPkpgXVIG+3ji7liwmPX0fbtcuwe5j6dRm0vdYcI+nljOPtyLhEh49AMJg31QHecRbydpY4tQ7MMiumdxNt7lWUIOw67EJf9QuXKxcOhL8kDfHlHIPlD2pHIbbRfz7APvIt1H3O5uFI/OPnCunWEP2gf8KUpceYX+suKChwzQgdzNo2bo7ONDtKFj/xJKYIqazai3YZoR+Ai7Censo9Jw6XYlFZtHwzbeteR6crHOQ3exaXxAOg05LIwYY/jIdRmyD+hMH5JTV7iJY9N2B7I3TPbh2abZw9JdBdcHQU0jN98XoGGA4KeX0AHqU7S0Txs6Xko9QUfsD21OVp3I8sRszmPBffqlhsPj8A3lMfJbyw23TKcumnvgwl1ylM/3AbbupcoBHKWOx7CBUS2wDi577eoDXDGafaRcVH0AfwWH/ut0pQHKEk3d9Rp/MzfntasvUIBywVpdu0EFZe5Js0v6XG3+ngch43Xbu9qoHv5sUqaKXhb6pjoSVBUM+KO7I8c0yCXsq2T6+hZp9rF4herDqACl71xYgCC5mdEe2/S90AfXKNdk1IWFRNNLfYmS3SV94HLTof5DBB3pkgxs7IILAi4FsUhy9hEWLrhg5lJQFEaOJJ7yl290XbDoSXvMPmY+6n2ES/kEMuU1zz601Gd5HeNS2hCdRXajugRSS3IpFycwV57SonkoDy5fCL5ogZkp4ED0cqz0xbPcv7rApL0hc5fsg8j/A/7XTB7z5IZJAAAAAElFTkSuQmCC;" vertex="1" parent="1">
          <mxGeometry x="290" y="330" width="158.33" height="50" as="geometry" />
        </mxCell>
        <mxCell id="NI4SbZZZ6r_hj7vKg_z0-4" value="Resource Management for Cluster &#xa;( like Kubernates )" style="shape=image;imageAspect=0;aspect=fixed;verticalLabelPosition=bottom;verticalAlign=top;image=https://i.pinimg.com/736x/e5/27/a8/e527a8d55df7b2345fe57fdf7bfa8e73.jpg;" vertex="1" parent="1">
          <mxGeometry x="520" y="400" width="135.73" height="77" as="geometry" />
        </mxCell>
        <mxCell id="NI4SbZZZ6r_hj7vKg_z0-6" value="(A reliable and redundant storage)" style="shape=image;imageAspect=0;aspect=fixed;verticalLabelPosition=bottom;verticalAlign=top;image=https://miro.medium.com/max/981/1*vH0yWboPy9ptgOSqClcS4Q.png;" vertex="1" parent="1">
          <mxGeometry x="264.15999999999997" y="540" width="208" height="70" as="geometry" />
        </mxCell>
        <mxCell id="NI4SbZZZ6r_hj7vKg_z0-11" value="" style="endArrow=classic;html=1;rounded=0;exitX=0.5;exitY=1;exitDx=0;exitDy=0;" edge="1" parent="1" source="NI4SbZZZ6r_hj7vKg_z0-3" target="NI4SbZZZ6r_hj7vKg_z0-6">
          <mxGeometry width="50" height="50" relative="1" as="geometry">
            <mxPoint x="400" y="480" as="sourcePoint" />
            <mxPoint x="450" y="430" as="targetPoint" />
          </mxGeometry>
        </mxCell>
      </root>
    </mxGraphModel>
  </diagram>
</mxfile>
